<?xml version="1.0" standalone="no"?>
<!DOCTYPE svg PUBLIC "-//W3C//DTD SVG 20010904//EN"
 "http://www.w3.org/TR/2001/REC-SVG-20010904/DTD/svg10.dtd">
<svg version="1.0" xmlns="http://www.w3.org/2000/svg"
 width="308.000000pt" height="307.000000pt" viewBox="0 0 308.000000 307.000000"
 preserveAspectRatio="xMidYMid meet">
<metadata>
Created by potrace 1.15, written by Peter Selinger 2001-2017
</metadata>
<g transform="translate(0.000000,307.000000) scale(0.100000,-0.100000)"
fill="#000000" stroke="none">
<path d="M1851 2149 c-61 -12 -115 -50 -147 -104 -64 -111 -36 -222 107 -420
93 -129 121 -199 127 -314 3 -69 0 -108 -11 -139 -13 -38 -13 -42 2 -42 31 0
216 97 295 154 115 83 185 147 259 234 79 95 115 152 162 262 20 47 43 92 51
101 18 19 18 29 1 29 -24 0 -54 -43 -106 -150 -75 -155 -181 -271 -356 -389
-88 -60 -215 -134 -221 -129 -2 2 1 20 6 39 17 57 12 181 -10 251 -11 36 -39
93 -62 128 -24 34 -55 81 -70 103 -38 56 -55 135 -39 186 24 80 130 115 210
70 49 -27 101 -100 101 -141 0 -37 24 -37 40 1 10 24 9 40 -5 88 -37 129 -185
209 -334 182z"/>
<path d="M211 1614 c-63 -53 -66 -150 -5 -203 28 -25 43 -31 82 -31 27 0 54 6
60 12 10 10 15 10 22 -2 7 -11 9 0 9 35 -1 46 -2 47 -10 20 -27 -91 -157 -65
-160 32 -3 82 14 134 46 147 46 17 105 -6 105 -42 0 -6 5 -14 10 -17 6 -4 10
10 10 36 0 34 -2 40 -14 30 -10 -8 -16 -9 -21 -1 -3 5 -28 10 -55 10 -37 0
-55 -6 -79 -26z"/>
<path d="M460 1238 c-23 -62 -51 -120 -61 -130 -25 -22 -25 -23 16 -23 34 0
47 9 24 17 -8 3 -9 15 -4 36 6 31 9 32 55 32 46 0 49 -1 55 -32 5 -21 4 -33
-4 -36 -25 -8 -8 -17 34 -17 25 0 45 3 45 8 0 4 -6 7 -14 7 -9 0 -27 41 -51
118 -21 64 -41 121 -45 125 -4 4 -26 -43 -50 -105z"/>
<path d="M737 1342 c9 -6 12 -39 10 -116 -2 -98 -4 -110 -23 -123 -19 -12 -24
-11 -44 5 -34 27 -31 89 7 120 28 23 28 24 3 17 -37 -10 -60 -37 -67 -77 -4
-30 -1 -41 20 -62 28 -28 65 -34 85 -14 10 10 14 10 21 0 5 -9 14 -10 32 -3
13 5 18 10 12 10 -10 1 -13 33 -13 126 l0 125 -27 0 c-18 0 -23 -3 -16 -8z"/>
<path d="M1009 1235 c-53 -29 -57 -104 -7 -139 32 -23 65 -20 93 9 37 36 34
86 -6 119 -35 30 -44 31 -80 11z"/>
</g>
</svg>
